<svg id="visual" viewBox="0 0 900 600" width="900" height="600" xmlns="http://www.w3.org/2000/svg" xmlns:xlink="http://www.w3.org/1999/xlink" version="1.1"><rect x="0" y="0" width="900" height="600" fill="#FFF"></rect><defs><linearGradient id="grad1_0" x1="33.3%" y1="0%" x2="100%" y2="100%"><stop offset="20%" stop-color="#ffffff" stop-opacity="1"></stop><stop offset="80%" stop-color="#ffffff" stop-opacity="1"></stop></linearGradient></defs><defs><linearGradient id="grad2_0" x1="0%" y1="0%" x2="66.7%" y2="100%"><stop offset="20%" stop-color="#ffffff" stop-opacity="1"></stop><stop offset="80%" stop-color="#ffffff" stop-opacity="1"></stop></linearGradient></defs><g transform="translate(900, 0)"><path d="M0 405.6C-23 387.1 -46.1 368.6 -72.2 362.9C-98.3 357.2 -127.5 364.4 -144.7 349.2C-161.8 334.1 -166.9 296.6 -191.1 286C-215.3 275.4 -258.5 291.7 -284.3 284.3C-310 276.8 -318.3 245.6 -329.3 220C-340.3 194.4 -354 174.3 -366.8 151.9C-379.6 129.5 -391.5 104.8 -397.8 79.1C-404.2 53.4 -404.9 26.7 -405.6 0L0 0Z" fill="#F52D86"></path></g><g transform="translate(0, 600)"><path d="M0 -405.6C23.5 -383 46.9 -360.5 68.9 -346.2C90.8 -332 111.3 -326.1 133.6 -322.4C155.8 -318.8 179.9 -317.3 211.1 -316C242.4 -314.6 280.8 -313.3 286.8 -286.8C292.8 -260.3 266.3 -208.7 272.7 -182.2C279.1 -155.7 318.5 -154.4 338.1 -140.1C357.8 -125.7 357.9 -98.3 365.8 -72.8C373.8 -47.3 389.7 -23.6 405.6 0L0 0Z" fill="#F52D86"></path></g></svg>