<svg id="visual" viewBox="0 0 1920 1080" width="1920" height="1080" xmlns="http://www.w3.org/2000/svg" xmlns:xlink="http://www.w3.org/1999/xlink" version="1.1"><rect x="0" y="0" width="1920" height="1080" fill="#FFF"></rect><defs><linearGradient id="grad1_0" x1="43.8%" y1="0%" x2="100%" y2="100%"><stop offset="14.444444444444446%" stop-color="#f52d86" stop-opacity="1"></stop><stop offset="85.55555555555554%" stop-color="#f52d86" stop-opacity="1"></stop></linearGradient></defs><defs><linearGradient id="grad1_1" x1="43.8%" y1="0%" x2="100%" y2="100%"><stop offset="14.444444444444446%" stop-color="#f52d86" stop-opacity="1"></stop><stop offset="85.55555555555554%" stop-color="#ffa4c0" stop-opacity="1"></stop></linearGradient></defs><defs><linearGradient id="grad1_2" x1="43.8%" y1="0%" x2="100%" y2="100%"><stop offset="14.444444444444446%" stop-color="#ffffff" stop-opacity="1"></stop><stop offset="85.55555555555554%" stop-color="#ffa4c0" stop-opacity="1"></stop></linearGradient></defs><defs><linearGradient id="grad2_0" x1="0%" y1="0%" x2="56.3%" y2="100%"><stop offset="14.444444444444446%" stop-color="#f52d86" stop-opacity="1"></stop><stop offset="85.55555555555554%" stop-color="#f52d86" stop-opacity="1"></stop></linearGradient></defs><defs><linearGradient id="grad2_1" x1="0%" y1="0%" x2="56.3%" y2="100%"><stop offset="14.444444444444446%" stop-color="#ffa4c0" stop-opacity="1"></stop><stop offset="85.55555555555554%" stop-color="#f52d86" stop-opacity="1"></stop></linearGradient></defs><defs><linearGradient id="grad2_2" x1="0%" y1="0%" x2="56.3%" y2="100%"><stop offset="14.444444444444446%" stop-color="#ffa4c0" stop-opacity="1"></stop><stop offset="85.55555555555554%" stop-color="#ffffff" stop-opacity="1"></stop></linearGradient></defs><g transform="translate(1920, 0)"><path d="M0 1080C-68.8 1051 -137.5 1021.9 -196.7 988.6C-255.8 955.4 -305.3 917.9 -377.7 911.9C-450.1 905.9 -545.3 931.3 -600 898C-654.8 864.6 -669.1 772.5 -717.7 717.7C-766.3 663 -849.2 645.7 -887.2 592.8C-925.2 539.9 -918.2 451.4 -911.9 377.7C-905.5 304 -899.7 245 -927.8 184.6C-955.9 124.1 -1018 62 -1080 0L0 0Z" fill="#ffd2df"></path><path d="M0 720C-45.8 700.6 -91.7 681.3 -131.1 659.1C-170.5 636.9 -203.6 611.9 -251.8 607.9C-300 603.9 -363.5 620.9 -400 598.7C-436.5 576.4 -446.1 515 -478.5 478.5C-510.9 442 -566.1 430.5 -591.5 395.2C-616.8 359.9 -612.2 300.9 -607.9 251.8C-603.7 202.7 -599.8 163.4 -618.5 123C-637.3 82.7 -678.6 41.4 -720 0L0 0Z" fill="#fe72a3"></path><path d="M0 360C-22.9 350.3 -45.8 340.6 -65.6 329.5C-85.3 318.5 -101.8 306 -125.9 304C-150 302 -181.8 310.4 -200 299.3C-218.3 288.2 -223 257.5 -239.2 239.2C-255.4 221 -283.1 215.2 -295.7 197.6C-308.4 180 -306.1 150.5 -304 125.9C-301.8 101.3 -299.9 81.7 -309.3 61.5C-318.6 41.4 -339.3 20.7 -360 0L0 0Z" fill="#f52d86"></path></g><g transform="translate(0, 1080)"><path d="M0 -1080C70.7 -1071 141.5 -1062 207.8 -1044.5C274.1 -1027.1 335.9 -1001.1 407.6 -983.9C479.2 -966.8 560.5 -958.4 600 -898C639.5 -837.6 637.1 -725.1 652.7 -652.7C668.2 -580.2 701.7 -547.9 778.3 -520C854.8 -492.1 974.4 -468.7 988.6 -409.5C1002.7 -350.2 911.5 -255.1 909.2 -180.8C906.9 -106.6 993.4 -53.3 1080 0L0 0Z" fill="#ffd2df"></path><path d="M0 -720C47.2 -714 94.3 -708 138.5 -696.4C182.7 -684.7 224 -667.4 271.7 -656C319.4 -644.5 373.7 -638.9 400 -598.7C426.3 -558.4 424.7 -483.4 435.1 -435.1C445.5 -386.8 467.8 -365.3 518.8 -346.7C569.9 -328.1 649.6 -312.5 659 -273C668.5 -233.5 607.7 -170 606.1 -120.6C604.6 -71.1 662.3 -35.5 720 0L0 0Z" fill="#fe72a3"></path><path d="M0 -360C23.6 -357 47.2 -354 69.3 -348.2C91.4 -342.4 112 -333.7 135.9 -328C159.7 -322.3 186.8 -319.5 200 -299.3C213.2 -279.2 212.4 -241.7 217.6 -217.6C222.7 -193.4 233.9 -182.6 259.4 -173.3C284.9 -164 324.8 -156.2 329.5 -136.5C334.2 -116.7 303.8 -85 303.1 -60.3C302.3 -35.5 331.1 -17.8 360 0L0 0Z" fill="#f52d86"></path></g></svg>